<?xml version="1.0" encoding="utf-8" standalone="no"?>
<!DOCTYPE svg PUBLIC "-//W3C//DTD SVG 1.1//EN"
  "http://www.w3.org/Graphics/SVG/1.1/DTD/svg11.dtd">
<!-- Created with matplotlib (http://matplotlib.org/) -->
<svg height="288pt" version="1.1" viewBox="0 0 720 288" width="720pt" xmlns="http://www.w3.org/2000/svg" xmlns:xlink="http://www.w3.org/1999/xlink">
 <defs>
  <style type="text/css">
*{stroke-linecap:butt;stroke-linejoin:round;}
  </style>
 </defs>
 <g id="figure_1">
  <g id="patch_1">
   <path d="M 0 288 
L 720 288 
L 720 0 
L 0 0 
z
" style="fill:#ffffff;"/>
  </g>
  <g id="axes_1">
   <g id="line2d_1">
    <path clip-path="url(#pd79c96b4cc)" d="M 112.32 145.44 
L 179.28 77.13792 
" style="fill:none;stroke:#00a4ef;stroke-linecap:square;stroke-width:28;"/>
   </g>
   <g id="line2d_2">
    <path clip-path="url(#pd79c96b4cc)" d="M 112.32 145.44 
L 179.28 213.74208 
" style="fill:none;stroke:#00a4ef;stroke-linecap:square;stroke-width:28;"/>
   </g>
   <g id="line2d_3">
    <path clip-path="url(#pd79c96b4cc)" d="M 201.6 190.67904 
L 290.88 100.20096 
" style="fill:none;stroke:#00a4ef;stroke-linecap:square;stroke-width:28;"/>
   </g>
   <g id="line2d_4">
    <path clip-path="url(#pd79c96b4cc)" d="M 201.6 100.20096 
L 235.08 134.352 
" style="fill:none;stroke:#00a4ef;stroke-linecap:square;stroke-width:28;"/>
   </g>
   <g id="line2d_5">
    <path clip-path="url(#pd79c96b4cc)" d="M 268.56 167.616 
L 290.88 190.67904 
" style="fill:none;stroke:#00a4ef;stroke-linecap:square;stroke-width:28;"/>
   </g>
   <g id="text_1">
    <!-- Lxy -->
    <defs>
     <path d="M 9.8125 72.90625 
L 19.671875 72.90625 
L 19.671875 8.296875 
L 55.171875 8.296875 
L 55.171875 0 
L 9.8125 0 
z
" id="DejaVuSans-4c"/>
     <path d="M 54.890625 54.6875 
L 35.109375 28.078125 
L 55.90625 0 
L 45.3125 0 
L 29.390625 21.484375 
L 13.484375 0 
L 2.875 0 
L 24.125 28.609375 
L 4.6875 54.6875 
L 15.28125 54.6875 
L 29.78125 35.203125 
L 44.28125 54.6875 
z
" id="DejaVuSans-78"/>
     <path d="M 32.171875 -5.078125 
Q 28.375 -14.84375 24.75 -17.8125 
Q 21.140625 -20.796875 15.09375 -20.796875 
L 7.90625 -20.796875 
L 7.90625 -13.28125 
L 13.1875 -13.28125 
Q 16.890625 -13.28125 18.9375 -11.515625 
Q 21 -9.765625 23.484375 -3.21875 
L 25.09375 0.875 
L 2.984375 54.6875 
L 12.5 54.6875 
L 29.59375 11.921875 
L 46.6875 54.6875 
L 56.203125 54.6875 
z
" id="DejaVuSans-79"/>
    </defs>
    <g transform="translate(335.52 211.968)scale(1.8 -1.8)">
     <use xlink:href="#DejaVuSans-4c"/>
     <use x="55.712891" xlink:href="#DejaVuSans-78"/>
     <use x="114.892578" xlink:href="#DejaVuSans-79"/>
    </g>
   </g>
  </g>
 </g>
 <defs>
  <clipPath id="pd79c96b4cc">
   <rect height="221.76" width="558" x="90" y="34.56"/>
  </clipPath>
 </defs>
</svg>
